PathFileType	4	(X/Y/Z)	..\data\2015007\dynamic\2015007_C4_04.trc
DataRate	CameraRate	NumFrames	NumMarkers	Units	OrigDataRate	OrigDataStartFrame	OrigNumFrames
100.000000	100.000000	4	52	mm	100.000000	141	162
Frame#	Time	L_IAS			L_IPS			R_IPS			R_IAS			L_FTC			L_FLE			L_FME			L_FAX			L_TTC			L_FAL			L_TAM			L_FCC			L_FM1			L_FM2			L_FM5			R_FTC			R_FLE			R_FME			R_FAX			R_TTC			R_FAL			R_TAM			R_FCC			R_FM1			R_FM2			R_FM5			CV7			TV10			SXS			SJN			L_SIA			L_SRS			L_SAA			L_SAE			L_HLE			L_HME			L_UOA			L_RSP			L_UHE			L_HM2			L_HM5			R_SIA			R_SRS			R_SAA			R_SAE			R_HLE			R_HME			R_UOA			R_RSP			R_UHE			R_HM2			R_HM5			
		X1	Y1	Z1	X2	Y2	Z2	X3	Y3	Z3	X4	Y4	Z4	X5	Y5	Z5	X6	Y6	Z6	X7	Y7	Z7	X8	Y8	Z8	X9	Y9	Z9	X10	Y10	Z10	X11	Y11	Z11	X12	Y12	Z12	X13	Y13	Z13	X14	Y14	Z14	X15	Y15	Z15	X16	Y16	Z16	X17	Y17	Z17	X18	Y18	Z18	X19	Y19	Z19	X20	Y20	Z20	X21	Y21	Z21	X22	Y22	Z22	X23	Y23	Z23	X24	Y24	Z24	X25	Y25	Z25	X26	Y26	Z26	X27	Y27	Z27	X28	Y28	Z28	X29	Y29	Z29	X30	Y30	Z30	X31	Y31	Z31	X32	Y32	Z32	X33	Y33	Z33	X34	Y34	Z34	X35	Y35	Z35	X36	Y36	Z36	X37	Y37	Z37	X38	Y38	Z38	X39	Y39	Z39	X40	Y40	Z40	X41	Y41	Z41	X42	Y42	Z42	X43	Y43	Z43	X44	Y44	Z44	X45	Y45	Z45	X46	Y46	Z46	X47	Y47	Z47	X48	Y48	Z48	X49	Y49	Z49	X50	Y50	Z50	X51	Y51	Z51	X52	Y52	Z52	

142	1.41	1493.799072265625	906.4490966796877	-373.1117248535157	1281.9404296875	915.7852783203127	-285.7625732421876	1294.97998046875	923.797058105469	-179.8855743408203	1516.061279296875	905.8545532226565	-126.2428207397461	1421.355102539063	801.5087890625002	-430.2066955566407	1575.217041015625	462.0291748046876	-393.7792053222657	1598.697021484375	444.8662414550782	-273.1348266601563	1557.640747070313	406.9001464843751	-399.0664978027345	1613.587646484375	391.1819152832032	-356.4155883789063	1485.859741210938	91.21397399902345	-366.0437927246094	1520.9423828125	90.11331939697267	-290.5757751464844	1446.780517578125	44.63086700439454	-306.6745300292969	1613.386962890625	24.89565658569337	-326.4460144042969	1604.209838867188	38.74893188476563	-370.6157226562501	1551.470458984375	23.68973922729493	-403.305633544922	1420.898315429688	807.4832763671877	-59.56199264526369	1394.499633789063	437.2229919433595	-135.1412811279297	1370.5703125	427.0246582031251	-262.0721435546876	1375.949829101563	383.1507873535157	-130.8280334472657	1419.496826171875	371.3789367675782	-182.934814453125	1309.27734375	63.35191345214845	-173.962890625	1328.503173828125	80.18821716308595	-258.5491333007813	1259.191772460938	18.21117782592774	-222.7396392822266	1436.803588867188	16.30834197998047	-249.4569244384766	1436.562866210938	29.15685462951661	-203.5820770263672	1387.129272460938	10.10835075378418	-149.0109100341797	1395.005859375	1410.37109375	-239.0457916259766	1292.38427734375	1172.813110351563	-241.1900939941407	1556.456909179688	1074.84326171875	-264.3635864257813	1505.611206054688	1325.496948242188	-253.7700653076172	1285.189697265625	1219.528686523438	-325.6848144531251	1328.014038085938	1347.163208007813	-338.1938476562501	1366.827270507813	1350.649658203125	-404.4837951660157	1415.124145507813	1357.531005859375	-421.3701477050782	1348.894897460938	1051.000122070313	-486.9726867675782	1330.216796875	1045.042724609375	-411.3594055175782	1320.812377929688	1030.231567382813	-458.6252746582032	1426.279663085938	821.6870117187502	-469.7808227539064	1357.82177734375	823.6665039062502	-509.2131347656251	1445.541748046875	758.8693237304689	-482.6090393066407	1353.451049804688	761.9904785156251	-510.1298217773439	1295.936279296875	1214.1484375	-159.6845245361328	1341.28564453125	1337.505859375	-157.087142944336	1399.883422851563	1339.542724609375	-89.99392700195314	1448.872802734375	1344.228881835938	-76.83657836914064	1456.307983398438	1026.397827148438	5.221561431884767	1410.376953125	1009.683837890625	-51.81946945190431	1431.28271484375	992.6648559570315	-8.640625953674318	1581.754028320313	836.4541625976565	-27.21047592163087	1544.238037109375	826.720153808594	21.85091781616211	1627.809448242188	768.322204589844	-24.78882789611817	1564.455078125	761.9744873046876	30.32128715515137	
143	1.42	1504.776123046875	904.7445068359377	-373.2785339355469	1292.4384765625	914.6455688476565	-286.6971740722657	1305.123291015625	922.5013427734377	-180.7903900146485	1526.036010742188	903.9431762695315	-126.1760864257813	1432.215087890625	800.4394531250002	-430.5889892578126	1587.934326171875	461.6423645019532	-393.4552001953126	1609.598510742188	444.3356018066407	-272.5556335449219	1572.569213867188	405.536102294922	-399.2749938964845	1628.785034179688	392.2483825683595	-355.7877807617188	1519.592163085938	86.06087493896486	-368.1465759277344	1553.839599609375	86.80712890625001	-292.1579589843751	1482.756713867188	37.27208709716798	-309.3604431152344	1650.378173828125	27.42990112304688	-326.9005126953126	1641.0771484375	40.77457427978516	-371.2196350097657	1589.709594726563	22.77365684509278	-404.5755310058595	1430.031860351563	806.5803222656252	-59.79552841186525	1398.15478515625	436.8566284179689	-135.4624481201172	1374.236694335938	427.1340637207032	-262.3229064941407	1379.045654296875	383.0388488769532	-131.1272277832032	1422.546020507813	370.7345275878907	-183.1358795166016	1309.456420898438	63.72344970703126	-174.4168090820313	1328.931518554688	80.41819000244142	-258.9163513183594	1259.286010742188	18.86370277404786	-223.3669433593751	1436.935302734375	16.22969245910645	-249.5751647949219	1436.553833007813	29.10930442810059	-203.6248168945313	1387.012573242188	10.16279697418213	-149.2564239501953	1405.896850585938	1409.14892578125	-239.4009704589844	1303.0673828125	1171.682739257813	-241.2895202636719	1567.281005859375	1073.192993164063	-265.0037841796876	1516.5029296875	1324.218505859375	-254.3315734863282	1295.864624023438	1218.328491210938	-325.7969970703126	1338.72021484375	1345.96875	-338.3919067382813	1377.355102539063	1349.382202148438	-404.8154602050782	1425.531127929688	1356.16357421875	-421.8182373046876	1356.304321289063	1050.198486328125	-486.4593200683595	1338.403198242188	1044.5078125	-410.6860656738282	1328.28369140625	1029.877319335938	-457.939910888672	1431.310791015625	820.123229980469	-470.1780700683595	1362.329833984375	822.7781982421877	-508.5700988769532	1449.70947265625	757.0416870117189	-483.2720642089845	1357.210815429688	761.1388549804689	-509.3897094726564	1306.731567382813	1213.200317382813	-159.6994781494141	1352.394897460938	1336.442138671875	-157.2671051025391	1411.330810546875	1338.302978515625	-90.13282012939455	1460.384155273438	1342.837768554688	-77.24510955810548	1470.139770507813	1025.055541992188	5.211647987365724	1423.950073242188	1007.961303710938	-51.78331375122072	1445.406372070313	991.145202636719	-8.756681442260744	1598.228149414063	837.2607421875002	-29.42505073547364	1561.159912109375	826.7576293945315	19.87247657775879	1645.411499023438	769.9797363281252	-27.57839965820313	1582.6435546875	762.3226928710939	27.98240852355958	
144	1.43	1515.746826171875	903.0378417968752	-373.5793457031251	1303.008056640625	913.3711547851565	-287.6304321289063	1315.330322265625	921.0941162109377	-181.7397766113282	1536.041137695313	902.0557250976565	-126.1688003540039	1442.934692382813	799.2081298828127	-430.9960937500001	1599.93115234375	460.8803100585939	-393.1116027832032	1619.61865234375	443.2307739257814	-271.9820251464844	1586.778686523438	403.985809326172	-399.4637756347657	1643.248657226563	393.0759277343751	-355.1829223632813	1552.859619140625	81.79448699951173	-369.9164733886719	1586.28173828125	84.36349487304689	-293.4680175781251	1518.498413085938	30.90600204467774	-311.6579284667969	1686.515625	30.91887092590333	-326.9839477539063	1677.124267578125	43.68262100219727	-371.4623718261719	1627.271240234375	22.82859802246094	-405.4442749023439	1439.1826171875	805.6750488281252	-60.0941848754883	1402.138793945313	436.5084838867189	-135.816635131836	1378.378662109375	427.2670898437501	-262.6487121582032	1382.4521484375	382.9605102539063	-131.4766693115235	1425.905883789063	370.0998229980469	-183.3555297851563	1309.694091796875	64.20101165771486	-174.904769897461	1329.438110351563	80.74226379394533	-259.2667541503907	1259.429565429688	19.66888809204102	-224.0715942382813	1437.101928710938	16.15746498107911	-249.6908874511719	1436.546020507813	29.05993652343751	-203.6586151123047	1386.881469726563	10.23855972290039	-149.5287170410157	1416.828735351563	1407.836059570313	-239.8009643554688	1313.772338867188	1170.486206054688	-241.5154113769532	1578.058837890625	1071.452758789063	-265.6616210937501	1527.444946289063	1322.833374023438	-254.9072570800782	1306.607299804688	1217.05419921875	-326.0301818847657	1349.521362304688	1344.70751953125	-338.6893005371094	1388.0205078125	1348.047607421875	-405.2181396484376	1436.046142578125	1354.724975585938	-422.3172607421876	1363.927856445313	1049.3505859375	-486.0196533203126	1346.836059570313	1043.9033203125	-410.0510559082032	1335.962646484375	1029.474365234375	-457.3348999023439	1436.48779296875	818.523132324219	-470.5381774902345	1367.000732421875	821.8894042968752	-508.0083618164064	1453.957885742188	755.1656494140626	-483.8247070312501	1361.13330078125	760.3073730468751	-508.744354248047	1317.489013671875	1212.185791015625	-159.823226928711	1363.507202148438	1335.292358398438	-157.525390625	1422.744262695313	1336.950561523438	-90.33938598632814	1471.860473632813	1341.331909179688	-77.69144439697267	1483.942626953125	1023.581909179688	5.009492874145509	1437.550048828125	1006.108703613281	-51.96748733520509	1459.504638671875	989.5105590820315	-9.066673278808596	1614.48388671875	837.867614746094	-31.68585014343262	1577.826049804688	826.6428833007815	17.8017692565918	1662.696166992188	771.397155761719	-30.38111686706544	1600.510131835938	762.5284423828126	25.59299850463868	
145	1.44	1526.732421875	901.3711547851565	-374.0071411132813	1313.669311523438	911.975036621094	-288.5809631347657	1325.613159179688	919.6067504882815	-182.7549896240235	1546.101806640625	900.2521972656252	-126.2242126464844	1453.5712890625	797.8358154296877	-431.4438476562501	1611.27197265625	459.7669372558595	-392.7543334960939	1628.862915039063	441.608856201172	-271.4145812988282	1600.311401367188	402.2687377929689	-399.6249084472657	1657.0244140625	393.6795349121095	-354.5944824218751	1585.372924804688	78.42488098144533	-371.3015441894532	1617.998413085938	82.77735137939455	-294.4726867675782	1553.6650390625	25.56593322753907	-313.4951171875001	1721.51611328125	35.25646591186524	-326.7112121582032	1712.055053710938	47.37583923339844	-371.3512268066407	1663.817626953125	23.78332901000977	-405.899383544922	1448.376220703125	804.796813964844	-60.4669876098633	1406.46484375	436.1940917968751	-136.1864318847657	1383.020385742188	427.4111633300782	-263.0436706542969	1386.178833007813	382.9307861328126	-131.8625030517578	1429.59912109375	369.4859313964844	-183.5779724121094	1310.002197265625	64.80336761474611	-175.4107666015625	1330.044677734375	81.17644500732423	-259.5905151367188	1259.629150390625	20.65329933166504	-224.830795288086	1437.302612304688	16.10081672668457	-249.7954711914063	1436.54736328125	29.01461410522462	-203.6791381835938	1386.743041992188	10.33998489379883	-149.8178405761719	1427.797973632813	1406.452392578125	-240.2523345947266	1324.499633789063	1169.236206054688	-241.8721466064454	1588.785278320313	1069.670166015625	-266.3384094238282	1538.436279296875	1321.367309570313	-255.5004272460938	1317.417114257813	1215.72119140625	-326.3840942382813	1360.4150390625	1343.395751953125	-339.0899047851563	1398.820190429688	1346.664184570313	-405.6942443847657	1446.667724609375	1353.237060546875	-422.8708801269532	1371.792236328125	1048.470581054688	-485.6658325195314	1355.5390625	1043.2412109375	-409.4653320312501	1343.876586914063	1029.032470703125	-456.8226928710939	1441.82763671875	816.8980102539065	-470.859832763672	1371.867309570313	821.012634277344	-507.5469665527345	1458.31005859375	753.2564086914064	-484.2592773437501	1365.246215820313	759.5146484375001	-508.2108154296876	1328.220336914063	1211.113159179688	-160.0621185302735	1374.616821289063	1334.070434570313	-157.8690185546875	1434.109375	1335.510620117188	-90.62677001953126	1483.287719726563	1339.742431640625	-78.18333435058595	1497.703735351563	1022.014709472656	4.604313373565675	1451.163330078125	1004.161193847656	-52.37255477905275	1473.562133789063	987.7891845703127	-9.569619178771974	1630.5048828125	838.2879638671877	-33.98644256591798	1594.230590820313	826.393981933594	15.65299797058106	1679.651123046875	772.5789184570315	-33.19184494018555	1618.035400390625	762.6013183593751	23.16168022155762	
